<svg width="171" height="48" viewBox="0 0 171 48" fill="none" xmlns="http://www.w3.org/2000/svg">
<path d="M124.472 32.3636L124.472 44H122.011L122.011 32.3636H124.472ZM136.229 32.3636V44H134.104L129.041 36.6761H128.956V44H126.496V32.3636L128.655 32.3636L133.678 39.6818H133.78V32.3636H136.229ZM142.386 44L138.261 44V32.3636L142.42 32.3636C143.591 32.3636 144.598 32.5966 145.443 33.0625C146.288 33.5246 146.938 34.1894 147.392 35.0568C147.85 35.9242 148.08 36.9621 148.08 38.1705C148.08 39.3826 147.85 40.4242 147.392 41.2955C146.938 42.1667 146.284 42.8352 145.432 43.3011C144.583 43.767 143.568 44 142.386 44ZM140.722 41.892H142.284C143.011 41.892 143.623 41.7633 144.119 41.5057C144.619 41.2443 144.994 40.8409 145.244 40.2955C145.498 39.7462 145.625 39.0379 145.625 38.1705C145.625 37.3106 145.498 36.608 145.244 36.0625C144.994 35.517 144.621 35.1155 144.125 34.858C143.629 34.6004 143.017 34.4716 142.29 34.4716L140.722 34.4716V41.892ZM149.902 44V32.3636L157.743 32.3636V34.392L152.362 34.392V37.1648H157.339V39.1932H152.362V41.9716H157.766V44H149.902ZM162.006 32.3636L164.352 36.3295H164.443L166.801 32.3636H169.58L166.028 38.1818L169.659 44L166.83 44L164.443 40.0284H164.352L161.966 44H159.148L162.79 38.1818L159.216 32.3636H162.006Z" fill="black"/>
<path d="M12.8409 39H2.52841V9.90909H12.9261C15.8523 9.90909 18.3712 10.4915 20.483 11.6562C22.5947 12.8116 24.2188 14.4735 25.3551 16.642C26.5009 18.8106 27.0739 21.4053 27.0739 24.4261C27.0739 27.4564 26.5009 30.0606 25.3551 32.2386C24.2188 34.4167 22.5852 36.0881 20.4545 37.2528C18.3333 38.4176 15.7955 39 12.8409 39ZM8.67898 33.7301H12.5852C14.4034 33.7301 15.9328 33.4081 17.1733 32.7642C18.4233 32.1108 19.3608 31.1023 19.9858 29.7386C20.6203 28.3655 20.9375 26.5947 20.9375 24.4261C20.9375 22.2765 20.6203 20.5199 19.9858 19.1562C19.3608 17.7926 18.428 16.7888 17.1875 16.1449C15.947 15.5009 14.4176 15.179 12.5994 15.179H8.67898V33.7301ZM31.63 39V9.90909H43.1072C45.3042 9.90909 47.1792 10.3021 48.7322 11.0881C50.2947 11.8646 51.4832 12.9678 52.2976 14.3977C53.1214 15.8182 53.5334 17.4896 53.5334 19.4119C53.5334 21.3437 53.1167 23.0057 52.2834 24.3977C51.45 25.7803 50.2427 26.8409 48.6612 27.5795C47.0893 28.3182 45.1858 28.6875 42.951 28.6875H35.2663V23.7443H41.9567C43.1309 23.7443 44.1063 23.5833 44.8828 23.2614C45.6593 22.9394 46.237 22.4564 46.6158 21.8125C47.004 21.1686 47.1982 20.3684 47.1982 19.4119C47.1982 18.446 47.004 17.6316 46.6158 16.9688C46.237 16.3059 45.6546 15.804 44.8686 15.4631C44.0921 15.1127 43.112 14.9375 41.9283 14.9375H37.7805V39H31.63ZM47.3402 25.7614L54.5703 39H47.7805L40.7067 25.7614H47.3402ZM64.0305 9.90909V39H57.88V9.90909H64.0305ZM74.3466 9.90909L81.3778 32.0114H81.6477L88.6932 9.90909H95.5114L85.483 39H77.5568L67.5142 9.90909H74.3466ZM99.0128 39V9.90909H118.615V14.9801H105.163V21.9119H117.607V26.983H105.163V33.929H118.672V39H99.0128Z" fill="black"/>
</svg>
