<svg width="28" height="20" viewBox="0 0 28 20" fill="none" xmlns="http://www.w3.org/2000/svg">
<path d="M25.7188 3.89687H2.28125C1.25 3.89687 0.40625 3.05312 0.40625 2.02187C0.40625 0.990623 1.25 0.146873 2.28125 0.146873H25.7188C26.75 0.146873 27.5938 0.990623 27.5938 2.02187C27.5938 3.05312 26.75 3.89687 25.7188 3.89687Z" fill="#231F20"/>
<path d="M25.7188 19.8531H2.28125C1.25 19.8531 0.40625 19.0094 0.40625 17.9781C0.40625 16.9469 1.25 16.1031 2.28125 16.1031H25.7188C26.75 16.1031 27.5938 16.9469 27.5938 17.9781C27.5938 19.0094 26.75 19.8531 25.7188 19.8531Z" fill="#231F20"/>
<path d="M25.7188 11.875H2.28125C1.25 11.875 0.40625 11.0312 0.40625 10C0.40625 8.96875 1.25 8.125 2.28125 8.125H25.7188C26.75 8.125 27.5938 8.96875 27.5938 10C27.5938 11.0312 26.75 11.875 25.7188 11.875Z" fill="#231F20"/>
</svg>
